  <svg xmlns="http://www.w3.org/2000/svg"
     style="position: absolute; width: 0; height: 0; overflow: hidden; display: none;">

    <symbol id="icon-sun" viewBox="0 0 32 32">
      <path fill="none" stroke="#fff" style="stroke: var(--color1, #fff)" stroke-linejoin="round" stroke-linecap="round"
        stroke-miterlimit="4" stroke-width="2"
        d="M15.5 25.5c5.523 0 10-4.477 10-10s-4.477-10-10-10c-5.523 0-10 4.477-10 10s4.477 10 10 10z"></path>
      <path fill="none" stroke="#fff" style="stroke: var(--color1, #fff)" stroke-linejoin="round" stroke-linecap="round"
        stroke-miterlimit="4" stroke-width="3"
        d="M25.314 5.686l0.182-0.182M5.504 25.496l0.182-0.182M15.5 1.612v-0.112M15.5 29.5v-0.112M1.612 15.5h-0.112M29.5 15.5h-0.112M5.686 5.686l-0.182-0.182M25.496 25.496l-0.182-0.182">
      </path>
    </symbol>
    <symbol id="icon-moon" viewBox="0 0 32 32">
      <path fill="none" stroke="#fff" style="stroke: var(--color1, #fff)" stroke-linejoin="round" stroke-linecap="round"
        stroke-miterlimit="4" stroke-width="2.2857"
        d="M1.185 16.627c0.552 7.65 7.256 13.873 15.279 14.215 5.661 0.238 10.723-2.317 13.761-6.342 1.258-1.649 0.583-2.748-1.519-2.376-1.028 0.178-2.086 0.253-3.191 0.208-7.502-0.297-13.638-6.372-13.669-13.546-0.015-1.931 0.399-3.758 1.151-5.421 0.828-1.842-0.169-2.718-2.086-1.931-6.075 2.481-10.232 8.407-9.726 15.195z">
      </path>
    </symbol>
    <symbol id="icon-circle" viewBox="0 0 32 32">
      <path fill="#fff" style="fill: var(--color1, #fff)"
        d="M4.708 4.708c6.26-6.26 16.391-6.28 22.627-0.043s6.217 16.367-0.043 22.627c-6.26 6.26-16.391 6.28-22.627 0.043s-6.217-16.367 0.043-22.627z">
      </path>
    </symbol>
    <symbol id="icon-circle1" viewBox="0 0 10 32">
      <path stroke-linejoin="miter" stroke-linecap="round" stroke-miterlimit="4" stroke-width="2.9538"
        d="M1.535 1.477c7.087 7.573 7.060 19.881-0.059 27.489"></path>
    </symbol>
    <symbol id="icon-heart" viewBox="0 0 34 32">
      <path fill="#f87719" style="fill: var(--color1, #f87719)"
        d="M17.231 31.705l-2.412-2.412c-8.96-7.926-14.818-13.268-14.818-19.815 0-5.342 4.135-9.477 9.477-9.477 2.929 0 5.858 1.378 7.754 3.618 1.895-2.24 4.825-3.618 7.754-3.618 5.342 0 9.477 4.135 9.477 9.477 0 6.548-5.858 11.889-14.818 19.815l-2.412 2.412z">
      </path>
    </symbol>
    <symbol id="icon-close" viewBox="0 0 32 32">
      <path
        d="M32 3.223l-3.223-3.223-12.777 12.777-12.777-12.777-3.223 3.223 12.777 12.777-12.777 12.777 3.223 3.223 12.777-12.777 12.777 12.777 3.223-3.223-12.777-12.777 12.777-12.777z">
      </path>
    </symbol>
  </svg>